<?xml version="1.0" standalone="no"?>
<!DOCTYPE svg PUBLIC "-//W3C//DTD SVG 20010904//EN"
 "http://www.w3.org/TR/2001/REC-SVG-20010904/DTD/svg10.dtd">
<svg version="1.0" xmlns="http://www.w3.org/2000/svg"
 width="298.000000pt" height="298.000000pt" viewBox="0 0 298.000000 298.000000"
 preserveAspectRatio="xMidYMid meet">

<g transform="translate(0.000000,298.000000) scale(0.100000,-0.100000)"
fill="#000000" stroke="none">
<path d="M1572 2910 c-40 -11 -94 -30 -120 -42 -42 -21 -51 -22 -92 -12 -106
29 -297 10 -403 -39 -130 -60 -249 -198 -356 -414 -96 -192 -169 -271 -305
-330 l-50 -21 59 -7 c52 -7 146 3 202 21 10 3 -14 -26 -53 -64 -112 -109 -281
-199 -356 -189 -21 3 -38 3 -38 1 0 -3 21 -14 48 -25 35 -16 77 -23 161 -27
103 -4 112 -6 95 -20 -56 -43 -235 -99 -272 -84 -9 3 -13 1 -9 -5 13 -20 151
-47 244 -47 l92 -1 -47 -48 c-56 -58 -176 -140 -229 -157 -34 -12 -35 -14 -15
-21 51 -19 275 40 389 102 l72 39 7 -46 c8 -58 -1 -112 -24 -144 -37 -49 -115
-100 -175 -112 -65 -14 -59 -21 33 -37 108 -20 206 7 279 77 23 22 40 34 37
27 -3 -8 -10 -33 -16 -57 -31 -115 -157 -265 -264 -314 l-51 -23 86 0 c139 -1
288 45 398 124 50 36 53 37 46 14 -29 -100 -105 -210 -187 -271 l-53 -41 61 6
c85 9 147 32 227 83 78 50 77 32 0 -35 -55 -47 -46 -51 52 -26 91 24 160 63
217 123 35 37 53 50 58 41 14 -22 -4 -48 -50 -71 -27 -14 -56 -40 -73 -66 -40
-60 -108 -108 -186 -132 -119 -36 -285 -80 -346 -91 -86 -16 -125 -34 -125
-58 0 -12 -6 -21 -14 -21 -54 0 -216 -346 -216 -461 0 -5 520 -9 1170 -9 1159
0 1170 0 1170 20 0 11 -18 75 -41 142 -42 126 -100 245 -124 254 -8 3 -17 18
-20 34 -4 19 -17 33 -38 43 -43 20 -296 102 -374 122 -64 16 -194 92 -140 83
15 -3 27 -3 27 0 0 3 -18 20 -40 39 -56 48 -50 60 8 18 54 -38 201 -110 247
-120 27 -6 26 -3 -15 23 -48 31 -86 69 -116 116 l-19 30 25 -7 c64 -17 249
-29 325 -21 l80 9 -70 23 c-73 24 -192 89 -216 118 -12 15 -11 16 16 11 26 -5
163 -11 190 -8 5 1 -33 22 -85 48 -54 27 -111 64 -133 88 -44 44 -87 126 -87
165 l1 25 22 -25 c46 -51 190 -148 232 -156 6 -1 34 -9 64 -18 30 -9 75 -16
100 -16 l46 0 -43 38 c-98 87 -176 243 -176 354 0 37 3 71 7 74 4 4 17 -2 30
-13 35 -32 135 -64 217 -70 l75 -4 -30 23 c-82 63 -157 149 -143 164 3 2 35
-3 71 -12 53 -13 83 -15 149 -8 l83 9 -50 32 c-70 45 -159 137 -152 157 4 11
1 16 -11 16 -22 0 -56 44 -82 106 -28 63 -26 67 21 43 44 -22 216 -69 253 -69
18 0 17 3 -10 19 -104 64 -202 215 -265 412 -60 189 -159 328 -322 453 -89 68
-167 107 -283 141 -105 30 -181 31 -282 5z"/>
</g>
</svg>
